<?xml version="1.0" encoding="UTF-8" standalone="no"?>
<svg
   xmlns:dc="http://purl.org/dc/elements/1.1/"
   xmlns:cc="http://creativecommons.org/ns#"
   xmlns:rdf="http://www.w3.org/1999/02/22-rdf-syntax-ns#"
   xmlns:svg="http://www.w3.org/2000/svg"
   xmlns="http://www.w3.org/2000/svg"
   width="192"
   height="192"
   viewBox="0 0 50.799999 50.800001"
   version="1.1"
   id="svg8">
  <defs
     id="defs2" />
  <metadata
     id="metadata5">
    <rdf:RDF>
      <cc:Work
         rdf:about="">
        <dc:format>image/svg+xml</dc:format>
        <dc:type
           rdf:resource="http://purl.org/dc/dcmitype/StillImage" />
        <dc:title></dc:title>
      </cc:Work>
    </rdf:RDF>
  </metadata>
  <g
     id="layer1"
     style="display:none">
    <rect
       style="fill:#00c6ff;fill-opacity:0.156627;fill-rule:evenodd;stroke-width:0.264583"
       id="rect12"
       width="46.566666"
       height="33.866665"
       x="2.1166666"
       y="8.4666662" />
  </g>
  <g
     id="layer3"
     style="display:inline">
    <path
       style="fill:#008aff;fill-opacity:1;stroke-width:0.299488"
       id="rect894"
       width="6.6145835"
       height="32.543751"
       x="2.6458352"
       y="8.7312489"
       d="M 6.0854185,8.7312489 A 3.3099365,3.3099365 47.290608 0 1 9.2604187,12.170832 V 37.835416 A 3.4395833,3.4395833 135 0 1 5.8208354,41.275 3.3099365,3.3099365 47.290608 0 1 2.6458352,37.835416 V 12.170832 A 3.4395833,3.4395833 135 0 1 6.0854185,8.7312489 Z" />
    <path
       style="fill:#008aff;fill-opacity:1;stroke-width:0.299489"
       id="rect894-5"
       width="6.6145835"
       height="32.543999"
       x="18.52083"
       y="8.7312489"
       d="m 21.960413,8.7312489 a 3.3099365,3.3099365 47.290608 0 1 3.175001,3.4395831 v 25.664832 a 3.4395833,3.4395833 135 0 1 -3.439584,3.439584 3.3099365,3.3099365 47.290608 0 1 -3.175,-3.439584 V 12.170832 a 3.4395833,3.4395833 135 0 1 3.439583,-3.4395831 z" />
    <path
       style="fill:#008aff;fill-opacity:1;stroke-width:0.181148"
       id="rect894-2"
       width="6.6145835"
       height="11.906249"
       x="10.583333"
       y="13.229167"
       d="m 14.022916,13.229167 a 3.3099365,3.3099365 47.290608 0 1 3.175001,3.439583 v 5.027083 a 3.4395833,3.4395833 135 0 1 -3.439584,3.439583 3.3099365,3.3099365 47.290608 0 1 -3.175,-3.439583 V 16.66875 a 3.4395833,3.4395833 135 0 1 3.439583,-3.439583 z" />
  </g>
  <g
     id="layer2"
     style="display:inline">
    <path
       style="fill:#1f51b9;fill-opacity:1;stroke-width:0.295814"
       id="rect842-6"
       width="6.6145835"
       height="37.041668"
       x="17.235809"
       y="22.182274"
       d="m 20.675393,22.182274 a 3.3099365,3.3099365 47.290608 0 1 3.175,3.439583 V 55.784359 A 3.4395833,3.4395833 135 0 1 20.41081,59.223942 3.3099365,3.3099365 47.290608 0 1 17.235809,55.784359 V 25.621857 a 3.4395833,3.4395833 135 0 1 3.439584,-3.439583 z"
       transform="rotate(-30)" />
    <path
       style="fill:#1f51b9;fill-opacity:1;stroke-width:0.295814"
       id="rect842"
       width="6.6145835"
       height="37.041668"
       x="28.13792"
       y="-7.892159"
       d="m 31.577504,-7.892159 a 3.3099365,3.3099365 47.290608 0 1 3.175,3.4395833 V 25.709926 A 3.4395833,3.4395833 135 0 1 31.312921,29.149509 3.3099365,3.3099365 47.290608 0 1 28.13792,25.709926 V -4.4525757 a 3.4395833,3.4395833 135 0 1 3.439584,-3.4395833 z"
       transform="rotate(30)" />
    <rect
       style="fill:#1f51b9;fill-opacity:1;stroke-width:0.351673"
       id="rect870"
       width="14.022917"
       height="6.6145835"
       x="32.279167"
       y="34.819168" />
    <path
       style="fill:#1f51b9;fill-opacity:1;stroke-width:0.285782"
       id="rect870-0"
       width="9.260417"
       height="6.6145835"
       x="27.516665"
       y="34.819168"
       d="m 30.162498,34.819168 h 3.96875 a 2.6458333,2.6458333 45 0 1 2.645833,2.645833 v 1.322917 a 2.6458333,2.6458333 135 0 1 -2.645833,2.645834 h -3.96875 a 2.6458333,2.6458333 45 0 1 -2.645833,-2.645834 v -1.322917 a 2.6458333,2.6458333 135 0 1 2.645833,-2.645833 z" />
    <ellipse
       style="fill:#1f51b9;fill-rule:evenodd;stroke-width:0.264583;fill-opacity:1"
       id="path862"
       cx="30.011311"
       cy="10.554985"
       rx="2.3812499"
       ry="2.1166666" />
  </g>
</svg>
