<?xml version="1.0" encoding="UTF-8" standalone="no"?>
<svg
   xmlns:dc="http://purl.org/dc/elements/1.1/"
   xmlns:cc="http://creativecommons.org/ns#"
   xmlns:rdf="http://www.w3.org/1999/02/22-rdf-syntax-ns#"
   xmlns:svg="http://www.w3.org/2000/svg"
   xmlns="http://www.w3.org/2000/svg"
   width="192"
   height="192"
   viewBox="0 0 50.799999 50.800001"
   version="1.1"
   id="svg92">
  <defs
     id="defs86" />
  <metadata
     id="metadata89">
    <rdf:RDF>
      <cc:Work
         rdf:about="">
        <dc:format>image/svg+xml</dc:format>
        <dc:type
           rdf:resource="http://purl.org/dc/dcmitype/StillImage" />
        <dc:title></dc:title>
      </cc:Work>
    </rdf:RDF>
  </metadata>
  <g
     id="layer1">
    <path
       style="display:inline;fill:#008aff;fill-opacity:1;stroke-width:0.515202"
       id="rect894-5"
       width="13.229165"
       height="48.154167"
       x="35.71875"
       y="1.3229166"
       d="m 41.71875,1.3229166 h 1.229165 a 6,6 45 0 1 6,6 V 43.477084 a 6,6 135 0 1 -6,6 H 41.71875 a 6,6 45 0 1 -6,-6 V 7.3229166 a 6,6 135 0 1 6,-6 z" />
    <path
       style="display:inline;fill:#008aff;fill-opacity:1;stroke-width:0.321307"
       id="rect894-2"
       width="13.229166"
       height="18.729336"
       x="18.520834"
       y="7.7289987"
       d="M 24.520834,7.7289987 H 25.75 a 6,6 45 0 1 6,6.0000003 v 6.729335 a 6,6 135 0 1 -6,6 h -1.229166 a 6,6 45 0 1 -6,-6 v -6.729335 a 6,6 135 0 1 6,-6.0000003 z" />
    <path
       style="fill:#008aff;fill-opacity:1;stroke-width:0.269823"
       id="rect117"
       width="13.229166"
       height="48.154167"
       x="1.3229166"
       y="1.3229166"
       d="m 7.3229166,1.3229166 h 1.2291661 a 6,6 45 0 1 6.0000003,6 V 43.477084 a 6,6 135 0 1 -6.0000003,6 H 7.3229166 a 6,6 45 0 1 -6,-6 V 7.3229166 a 6,6 135 0 1 6,-6 z" />
  </g>
</svg>
